# xmcd CD database file
#
# Track frame offsets:
#	150
#	13656
#	26538
#	40085
#	53849
#	65505
#	77941
#	91983
#	105239
#	119626
#	133236
#	147194
#	162104
#	175622
#	187673
#	200795
#	215041
#	229033
#	242225
#	257928
#	273568
#	287215
#	301762
#
# Disc length: 4206 seconds
#
# Revision: 1
# Processed by: cddbd v1.5.2PL0 Copyright (c) Steve Scherf et al.
# Submitted via: CDex 1.51
#
DISCID=4c106c17
DTITLE=Thelonious Monk - Ruby My Dear
DYEAR=2006
DGENRE=Jazz
TTITLE0=Suburban eyes
TTITLE1=Humph
TTITLE2=Thelonius
TTITLE3=Evonce
TTITLE4=Evidence
TTITLE5=Mysterioso
TTITLE6=Epistrophy
TTITLE7=Well you needn't
TTITLE8=Instrospection
TTITLE9=Nice work if you can get it
TTITLE10=Ruby my dear
TTITLE11=April in paris
TTITLE12=Off minor
TTITLE13=Who knows
TTITLE14=In walked bud
TTITLE15='Round Midnight
TTITLE16=Monk's mood
TTITLE17=Straight no chaser
TTITLE18=Four in one
TTITLE19=Four in one (alternate take)
TTITLE20=Willow weep for me
TTITLE21=Ask me now
TTITLE22=Eronel
EXTD=YEAR: 2006
EXTT0=
EXTT1=
EXTT2=
EXTT3=
EXTT4=
EXTT5=
EXTT6=
EXTT7=
EXTT8=
EXTT9=
EXTT10=
EXTT11=
EXTT12=
EXTT13=
EXTT14=
EXTT15=
EXTT16=
EXTT17=
EXTT18=
EXTT19=
EXTT20=
EXTT21=
EXTT22=
PLAYORDER=
